<svg id="Component_15_1" data-name="Component 15 – 1" xmlns="http://www.w3.org/2000/svg" xmlns:xlink="http://www.w3.org/1999/xlink" width="150" height="150" viewBox="0 0 150 150">
  <defs>
    <linearGradient id="linear-gradient" x1="0.96" y1="0.998" x2="0.04" y2="0.002" gradientUnits="objectBoundingBox">
      <stop offset="0.2" stop-color="#7d55c7"/>
      <stop offset="0.8" stop-color="#2ad2c9"/>
    </linearGradient>
    <linearGradient id="linear-gradient-2" x1="0.004" y1="0.982" x2="0.996" y2="0.018" xlink:href="#linear-gradient"/>
  </defs>
  <rect id="Rectangle_572" data-name="Rectangle 572" width="150" height="150" fill="none"/>
  <path id="Path_1670" data-name="Path 1670" d="M-29.1-2.275h-8.175v-14.15a1.163,1.163,0,0,0-1.15-1.15,1.142,1.142,0,0,0-1.125,1.15v14.85A1.568,1.568,0,0,0-37.975,0H-29.1a1.142,1.142,0,0,0,1.15-1.125A1.163,1.163,0,0,0-29.1-2.275ZM-17.425-17.7c-5.35,0-8.675,3.75-8.775,8.975C-26.1-3.5-22.775.25-17.425.25-12.1.25-8.75-3.5-8.65-8.725-8.75-13.95-12.1-17.7-17.425-17.7Zm0,15.825c-4.15,0-6.5-3-6.5-6.85s2.35-6.85,6.5-6.85c4.125,0,6.5,3,6.5,6.85S-13.3-1.875-17.425-1.875ZM8.1-3.2a1.053,1.053,0,0,0-.45.1A9.039,9.039,0,0,1,3.075-1.925c-4.425,0-6.7-2.95-6.7-6.8s2.275-6.8,6.7-6.8A9.039,9.039,0,0,1,7.65-14.35a1.053,1.053,0,0,0,.45.1.957.957,0,0,0,1-1,.973.973,0,0,0-.55-.9,10.9,10.9,0,0,0-5.7-1.55c-4.975,0-8.75,3.4-8.75,8.975S-2.125.25,2.85.25A10.9,10.9,0,0,0,8.55-1.3a.973.973,0,0,0,.55-.9A.957.957,0,0,0,8.1-3.2ZM26.825-1.5,20.45-16.55A1.57,1.57,0,0,0,19-17.575h-.25A1.57,1.57,0,0,0,17.3-16.55L10.925-1.5A1.335,1.335,0,0,0,10.8-1,1.076,1.076,0,0,0,11.925.125,1.139,1.139,0,0,0,13-.575l1.625-3.9h8.5l1.625,3.9a1.139,1.139,0,0,0,1.075.7A1.076,1.076,0,0,0,26.95-1,1.335,1.335,0,0,0,26.825-1.5ZM15.5-6.55l3.375-8.125L22.25-6.55ZM40.45-2.275H32.275v-14.15a1.163,1.163,0,0,0-1.15-1.15A1.142,1.142,0,0,0,30-16.425v14.85A1.568,1.568,0,0,0,31.575,0H40.45A1.142,1.142,0,0,0,41.6-1.125,1.163,1.163,0,0,0,40.45-2.275Z" transform="translate(75 131.882)" fill="#7d55c7"/>
  <g id="Group_1335" data-name="Group 1335" transform="translate(39 22.806)">
    <g id="Group_9" data-name="Group 9" transform="translate(3.043 3.025)">
      <g id="Group_8" data-name="Group 8" transform="translate(0 0.001)">
        <path id="Path_14" data-name="Path 14" d="M93.457,119.617A1.826,1.826,0,0,1,91.77,118.5L67.839,61.233a1.81,1.81,0,0,1,.986-2.372,1.829,1.829,0,0,1,2.387.979l23.932,57.266a1.822,1.822,0,0,1-1.686,2.512Z" transform="translate(-53.228 -49.178)" fill="url(#linear-gradient)"/>
        <path id="Path_15" data-name="Path 15" d="M42.87,87.549a1.827,1.827,0,0,1-1.538-.835,1.808,1.808,0,0,1,.55-2.508l67.2-42.879a1.832,1.832,0,0,1,2.523.548,1.808,1.808,0,0,1-.55,2.508l-67.2,42.879A1.831,1.831,0,0,1,42.87,87.549Z" transform="translate(-41.042 -41.039)" fill="url(#linear-gradient-2)"/>
      </g>
      <path id="Path_16" data-name="Path 16" d="M69.523,54.212a1.815,1.815,0,0,1-.325-3.6l52.733-9.543a1.816,1.816,0,1,1,.655,3.572L69.852,54.182A1.856,1.856,0,0,1,69.523,54.212Z" transform="translate(-53.228 -41.037)" fill="#2ad2c9"/>
      <path id="Path_17" data-name="Path 17" d="M81.269,148.051a1.821,1.821,0,0,1-.968-.277L41.9,123.845a1.81,1.81,0,0,1-.578-2.5,1.833,1.833,0,0,1,2.517-.574L82.24,144.7a1.81,1.81,0,0,1,.578,2.5A1.829,1.829,0,0,1,81.269,148.051Z" transform="translate(-41.041 -77.612)" fill="#7d55c7"/>
    </g>
    <g id="Group_10" data-name="Group 10" transform="translate(0 0)">
      <path id="Path_18" data-name="Path 18" d="M115.916,164.065a4.869,4.869,0,1,1-4.869-4.841A4.855,4.855,0,0,1,115.916,164.065Z" transform="translate(-67.775 -92.417)" fill="#7d55c7"/>
      <path id="Path_19" data-name="Path 19" d="M45.174,119.725a4.869,4.869,0,1,1-4.869-4.84A4.855,4.855,0,0,1,45.174,119.725Z" transform="translate(-35.435 -72.006)" fill="#7d55c7"/>
      <path id="Path_20" data-name="Path 20" d="M71.832,57.956a4.869,4.869,0,1,1-4.869-4.841A4.856,4.856,0,0,1,71.832,57.956Z" transform="translate(-47.622 -43.572)" fill="#2ad2c9"/>
      <path id="Path_21" data-name="Path 21" d="M168.972,40.273a4.869,4.869,0,1,1-4.869-4.841A4.856,4.856,0,0,1,168.972,40.273Z" transform="translate(-92.029 -35.432)" fill="#2ad2c9"/>
    </g>
  </g>
</svg>
