<svg id="Component_17_1" data-name="Component 17 – 1" xmlns="http://www.w3.org/2000/svg" xmlns:xlink="http://www.w3.org/1999/xlink" width="150" height="150" viewBox="0 0 150 150">
  <defs>
    <linearGradient id="linear-gradient" x1="0.96" y1="0.998" x2="0.04" y2="0.002" gradientUnits="objectBoundingBox">
      <stop offset="0.2" stop-color="#7d55c7"/>
      <stop offset="0.8" stop-color="#2ad2c9"/>
    </linearGradient>
    <linearGradient id="linear-gradient-2" x1="0.004" y1="0.982" x2="0.996" y2="0.018" xlink:href="#linear-gradient"/>
  </defs>
  <rect id="Rectangle_570" data-name="Rectangle 570" width="150" height="150" fill="none"/>
  <path id="Path_1669" data-name="Path 1669" d="M-52.763-17.45h-5.7a1.142,1.142,0,0,0-1.125,1.15V-1A1.12,1.12,0,0,0-58.463.125,1.142,1.142,0,0,0-57.312-1V-6.35h4.55c5.05,0,6.675-2.9,6.675-5.55S-47.713-17.45-52.763-17.45Zm-.225,8.95h-4.325v-6.8h4.325c3.725,0,4.625,1.775,4.625,3.4S-49.263-8.5-52.988-8.5Zm23.725,6.35c0-1.4-.35-4.975-3.125-5.7a4.665,4.665,0,0,0,3.275-4.525c0-2.875-2.05-5.075-6.8-5.075h-5.825a1.142,1.142,0,0,0-1.125,1.15V-1A1.12,1.12,0,0,0-41.737.125,1.142,1.142,0,0,0-40.587-1V-6.8h5.175c3.775,0,3.875,3.4,3.875,5.05V-1A1.07,1.07,0,0,0-30.387.125,1.12,1.12,0,0,0-29.262-1Zm-6.8-6.8h-4.525V-15.3h4.4c3.7,0,4.8,1.25,4.8,3.1C-31.387-10.075-33.262-8.95-36.062-8.95Zm22.15,6.825h-8.875v-5.55h7.975a1.046,1.046,0,0,0,1.075-1.05A1.067,1.067,0,0,0-14.812-9.8h-7.975v-5.525h8.875a1.046,1.046,0,0,0,1.075-1.05,1.067,1.067,0,0,0-1.075-1.075H-23.937a1.142,1.142,0,0,0-1.125,1.15V-1.125A1.12,1.12,0,0,0-23.937,0h10.025a1.046,1.046,0,0,0,1.075-1.05A1.067,1.067,0,0,0-13.912-2.125ZM-2.288-17.45h-5.7A1.142,1.142,0,0,0-9.113-16.3V-1A1.12,1.12,0,0,0-7.988.125,1.142,1.142,0,0,0-6.838-1V-6.35h4.55c5.05,0,6.675-2.9,6.675-5.55S2.762-17.45-2.288-17.45ZM-2.513-8.5H-6.838v-6.8h4.325c3.725,0,4.625,1.775,4.625,3.4S1.212-8.5-2.513-8.5ZM21.212-2.15c0-1.4-.35-4.975-3.125-5.7a4.665,4.665,0,0,0,3.275-4.525c0-2.875-2.05-5.075-6.8-5.075H8.737A1.142,1.142,0,0,0,7.612-16.3V-1A1.12,1.12,0,0,0,8.737.125,1.142,1.142,0,0,0,9.887-1V-6.8h5.175c3.775,0,3.875,3.4,3.875,5.05V-1A1.07,1.07,0,0,0,20.087.125,1.12,1.12,0,0,0,21.212-1Zm-6.8-6.8H9.887V-15.3h4.4c3.7,0,4.8,1.25,4.8,3.1C19.087-10.075,17.212-8.95,14.412-8.95ZM33.137-17.7c-5.35,0-8.675,3.75-8.775,8.975C24.462-3.5,27.787.25,33.137.25c5.325,0,8.675-3.75,8.775-8.975C41.813-13.95,38.463-17.7,33.137-17.7Zm0,15.825c-4.15,0-6.5-3-6.5-6.85s2.35-6.85,6.5-6.85c4.125,0,6.5,3,6.5,6.85S37.262-1.875,33.137-1.875Zm18.7-15.575H46.813a1.142,1.142,0,0,0-1.125,1.15V-1.125A1.12,1.12,0,0,0,46.813,0h5.025a8.46,8.46,0,0,0,8.825-8.725A8.447,8.447,0,0,0,51.838-17.45ZM51.563-2.125h-3.6v-13.2h3.6c4.175,0,6.85,2.7,6.85,6.6S55.738-2.125,51.563-2.125Z" transform="translate(74.588 131.882)" fill="#7d55c7"/>
  <g id="Group_1333" data-name="Group 1333" transform="translate(39 22.806)">
    <g id="Group_9" data-name="Group 9" transform="translate(3.043 3.025)">
      <g id="Group_8" data-name="Group 8" transform="translate(0 0.001)">
        <path id="Path_14" data-name="Path 14" d="M93.457,119.617A1.826,1.826,0,0,1,91.77,118.5L67.839,61.233a1.81,1.81,0,0,1,.986-2.372,1.829,1.829,0,0,1,2.387.979l23.932,57.266a1.822,1.822,0,0,1-1.686,2.512Z" transform="translate(-53.228 -49.178)" fill="url(#linear-gradient)"/>
        <path id="Path_15" data-name="Path 15" d="M42.87,87.549a1.827,1.827,0,0,1-1.538-.835,1.808,1.808,0,0,1,.55-2.508l67.2-42.879a1.832,1.832,0,0,1,2.523.548,1.808,1.808,0,0,1-.55,2.508l-67.2,42.879A1.831,1.831,0,0,1,42.87,87.549Z" transform="translate(-41.042 -41.039)" fill="url(#linear-gradient-2)"/>
      </g>
      <path id="Path_16" data-name="Path 16" d="M69.523,54.212a1.815,1.815,0,0,1-.325-3.6l52.733-9.543a1.816,1.816,0,1,1,.655,3.572L69.852,54.182A1.856,1.856,0,0,1,69.523,54.212Z" transform="translate(-53.228 -41.037)" fill="#2ad2c9"/>
      <path id="Path_17" data-name="Path 17" d="M81.269,148.051a1.821,1.821,0,0,1-.968-.277L41.9,123.845a1.81,1.81,0,0,1-.578-2.5,1.833,1.833,0,0,1,2.517-.574L82.24,144.7a1.81,1.81,0,0,1,.578,2.5A1.829,1.829,0,0,1,81.269,148.051Z" transform="translate(-41.041 -77.612)" fill="#7d55c7"/>
    </g>
    <g id="Group_10" data-name="Group 10" transform="translate(0 0)">
      <path id="Path_18" data-name="Path 18" d="M115.916,164.065a4.869,4.869,0,1,1-4.869-4.841A4.855,4.855,0,0,1,115.916,164.065Z" transform="translate(-67.775 -92.417)" fill="#7d55c7"/>
      <path id="Path_19" data-name="Path 19" d="M45.174,119.725a4.869,4.869,0,1,1-4.869-4.84A4.855,4.855,0,0,1,45.174,119.725Z" transform="translate(-35.435 -72.006)" fill="#7d55c7"/>
      <path id="Path_20" data-name="Path 20" d="M71.832,57.956a4.869,4.869,0,1,1-4.869-4.841A4.856,4.856,0,0,1,71.832,57.956Z" transform="translate(-47.622 -43.572)" fill="#2ad2c9"/>
      <path id="Path_21" data-name="Path 21" d="M168.972,40.273a4.869,4.869,0,1,1-4.869-4.841A4.856,4.856,0,0,1,168.972,40.273Z" transform="translate(-92.029 -35.432)" fill="#2ad2c9"/>
    </g>
  </g>
</svg>
